<svg width="53" height="53" viewBox="0 0 53 53" fill="none" xmlns="http://www.w3.org/2000/svg">
<path d="M26.5 4.41669C14.3034 4.41669 4.41666 14.3034 4.41666 26.5C4.41666 38.6966 14.3034 48.5834 26.5 48.5834C38.6966 48.5834 48.5833 38.6966 48.5833 26.5C48.5833 14.3034 38.6966 4.41669 26.5 4.41669Z" fill="url(#paint0_linear_181_5)"/>
<path d="M29.489 32.3532H35.2041L36.1018 26.5475H29.489V23.3741C29.489 20.9626 30.2774 18.8238 32.5332 18.8238H36.1582V13.7579C35.521 13.6718 34.174 13.4841 31.6289 13.4841C26.3134 13.4841 23.1974 16.2909 23.1974 22.6862V26.5486H17.7329V32.3543H23.1963V48.3117C24.2784 48.4729 25.3749 48.5833 26.5 48.5833C27.5169 48.5833 28.5096 48.4906 29.489 48.3581V32.3532Z" fill="white"/>
<defs>
<linearGradient id="paint0_linear_181_5" x1="11.0339" y1="11.034" x2="44.8457" y2="44.8457" gradientUnits="userSpaceOnUse">
<stop stop-color="#2AA4F4"/>
<stop offset="1" stop-color="#007AD9"/>
</linearGradient>
</defs>
</svg>
