<svg width="50" height="50" viewBox="0 0 50 50" fill="none" xmlns="http://www.w3.org/2000/svg">
<path d="M3.40909 43.7592H11.3636V24.441L0 15.9183V40.3501C0 42.2336 1.52557 43.7592 3.40909 43.7592Z" fill="#4285F4"/>
<path d="M38.6364 43.7592H46.5909C48.4744 43.7592 50 42.2336 50 40.3501V15.9183L38.6364 24.441V43.7592Z" fill="#34A853"/>
<path d="M38.6364 9.66828V24.441L50 15.9183V11.3728C50 7.15975 45.1903 4.7535 41.8182 7.28191L38.6364 9.66828Z" fill="#FBBC04"/>
<path fill-rule="evenodd" clip-rule="evenodd" d="M11.3636 24.441V9.66827L25 19.8955L38.6364 9.66827V24.441L25 34.6683L11.3636 24.441Z" fill="#EA4335"/>
<path d="M0 11.3728V15.9183L11.3636 24.441V9.66828L8.18182 7.28191C4.80966 4.7535 0 7.15975 0 11.3728Z" fill="#C5221F"/>
</svg>
