<svg width="50" height="50" viewBox="0 0 50 50" fill="none" xmlns="http://www.w3.org/2000/svg">
<path d="M25.0018 0C18.2122 0 17.3601 0.029688 14.6934 0.151042C12.0319 0.272917 10.2152 0.694271 8.62561 1.3125C6.98132 1.95104 5.58652 2.80521 4.19692 4.19531C2.80628 5.5849 1.9521 6.97969 1.31147 8.62344C0.691674 10.2135 0.269795 12.0307 0.150002 14.6911C0.0312504 17.3578 0 18.2104 0 25C0 31.7896 0.0302091 32.6391 0.151044 35.3057C0.273441 37.9672 0.694799 39.7839 1.31251 41.3734C1.95158 43.0177 2.80576 44.4125 4.19588 45.8021C5.58495 47.1927 6.97976 48.049 8.62301 48.6875C10.2136 49.3057 12.0309 49.7271 14.6918 49.849C17.3585 49.9703 18.2101 50 24.9992 50C31.7894 50 32.6389 49.9703 35.3056 49.849C37.9671 49.7271 39.7858 49.3057 41.3765 48.6875C43.0202 48.049 44.413 47.1927 45.802 45.8021C47.1927 44.4125 48.0469 43.0177 48.6875 41.374C49.3021 39.7839 49.724 37.9667 49.849 35.3063C49.9688 32.6396 50 31.7896 50 25C50 18.2104 49.9688 17.3583 49.849 14.6917C49.724 12.0302 49.3021 10.2135 48.6875 8.62396C48.0469 6.97969 47.1927 5.5849 45.802 4.19531C44.4114 2.80469 43.0208 1.95052 41.3749 1.3125C39.7812 0.694271 37.9634 0.272917 35.3019 0.151042C32.6352 0.029688 31.7863 0 24.9945 0H25.0018ZM22.7591 4.50521C23.4247 4.50417 24.1674 4.50521 25.0018 4.50521C31.6769 4.50521 32.4681 4.52917 35.104 4.64896C37.5415 4.76042 38.8645 5.16771 39.7457 5.5099C40.9124 5.96302 41.7442 6.50469 42.6187 7.37969C43.4937 8.25469 44.0354 9.08802 44.4895 10.2547C44.8317 11.1349 45.2395 12.4578 45.3505 14.8953C45.4703 17.5307 45.4963 18.3224 45.4963 24.9943C45.4963 31.6661 45.4703 32.4578 45.3505 35.0932C45.239 37.5307 44.8317 38.8536 44.4895 39.7339C44.0364 40.9005 43.4937 41.7313 42.6187 42.6057C41.7437 43.4807 40.9129 44.0224 39.7457 44.4755C38.8655 44.8193 37.5415 45.2255 35.104 45.337C32.4686 45.4568 31.6769 45.4828 25.0018 45.4828C18.3262 45.4828 17.5351 45.4568 14.8996 45.337C12.4621 45.2245 11.1392 44.8172 10.2574 44.475C9.09072 44.0219 8.25738 43.4802 7.38237 42.6052C6.50736 41.7302 5.96569 40.899 5.51152 39.7318C5.16933 38.8516 4.76151 37.5286 4.65057 35.0911C4.53078 32.4557 4.50682 31.6641 4.50682 24.988C4.50682 18.312 4.53078 17.5245 4.65057 14.8891C4.76203 12.4516 5.16933 11.1286 5.51152 10.2474C5.96465 9.08073 6.50736 8.2474 7.38237 7.3724C8.25738 6.4974 9.09072 5.95573 10.2574 5.50156C11.1387 5.15781 12.4621 4.75156 14.8996 4.63958C17.2059 4.53542 18.0997 4.50417 22.7591 4.49896V4.50521Z" fill="url(#paint0_radial_9_27)"/>
<path d="M38.293 8.59484C37.6996 8.59484 37.1195 8.77081 36.6262 9.1005C36.1328 9.43019 35.7483 9.89879 35.5212 10.447C35.2942 10.9953 35.2348 11.5985 35.3507 12.1805C35.4665 12.7625 35.7524 13.297 36.172 13.7165C36.5917 14.136 37.1263 14.4217 37.7084 14.5373C38.2904 14.653 38.8936 14.5934 39.4418 14.3662C39.9899 14.139 40.4584 13.7543 40.7879 13.2608C41.1175 12.7673 41.2932 12.1872 41.293 11.5938C41.293 9.93755 39.9493 8.5938 38.293 8.5938V8.59484Z" fill="url(#paint1_radial_9_27)"/>
<path fill-rule="evenodd" clip-rule="evenodd" d="M24.9481 12.1C17.8579 12.1 12.1094 17.8485 12.1094 24.9386C12.1094 32.0287 17.8579 37.7745 24.9481 37.7745C32.0382 37.7745 37.7852 32.0287 37.7852 24.9386C37.7852 17.8485 32.0382 12.1 24.9481 12.1ZM25 33.2032C29.5305 33.2032 33.2031 29.5305 33.2031 25C33.2031 20.4696 29.5305 16.7969 25 16.7969C20.4696 16.7969 16.7969 20.4696 16.7969 25C16.7969 29.5305 20.4696 33.2032 25 33.2032Z" fill="url(#paint2_radial_9_27)"/>
<path d="M25.0018 0C18.2122 0 17.3601 0.029688 14.6934 0.151042C12.0319 0.272917 10.2152 0.694271 8.62561 1.3125C6.98132 1.95104 5.58652 2.80521 4.19692 4.19531C2.80628 5.5849 1.9521 6.97969 1.31147 8.62344C0.691674 10.2135 0.269795 12.0307 0.150002 14.6911C0.0312504 17.3578 0 18.2104 0 25C0 31.7896 0.0302091 32.6391 0.151044 35.3057C0.273441 37.9672 0.694799 39.7839 1.31251 41.3734C1.95158 43.0177 2.80576 44.4125 4.19588 45.8021C5.58495 47.1927 6.97976 48.049 8.62301 48.6875C10.2136 49.3057 12.0309 49.7271 14.6918 49.849C17.3585 49.9703 18.2101 50 24.9992 50C31.7894 50 32.6389 49.9703 35.3056 49.849C37.9671 49.7271 39.7858 49.3057 41.3765 48.6875C43.0202 48.049 44.413 47.1927 45.802 45.8021C47.1927 44.4125 48.0469 43.0177 48.6875 41.374C49.3021 39.7839 49.724 37.9667 49.849 35.3063C49.9688 32.6396 50 31.7896 50 25C50 18.2104 49.9688 17.3583 49.849 14.6917C49.724 12.0302 49.3021 10.2135 48.6875 8.62396C48.0469 6.97969 47.1927 5.5849 45.802 4.19531C44.4114 2.80469 43.0208 1.95052 41.3749 1.3125C39.7812 0.694271 37.9634 0.272917 35.3019 0.151042C32.6352 0.029688 31.7863 0 24.9945 0H25.0018ZM22.7591 4.50521C23.4247 4.50417 24.1674 4.50521 25.0018 4.50521C31.6769 4.50521 32.4681 4.52917 35.104 4.64896C37.5415 4.76042 38.8645 5.16771 39.7457 5.5099C40.9124 5.96302 41.7442 6.50469 42.6187 7.37969C43.4937 8.25469 44.0354 9.08802 44.4895 10.2547C44.8317 11.1349 45.2395 12.4578 45.3505 14.8953C45.4703 17.5307 45.4963 18.3224 45.4963 24.9943C45.4963 31.6661 45.4703 32.4578 45.3505 35.0932C45.239 37.5307 44.8317 38.8536 44.4895 39.7339C44.0364 40.9005 43.4937 41.7313 42.6187 42.6057C41.7437 43.4807 40.9129 44.0224 39.7457 44.4755C38.8655 44.8193 37.5415 45.2255 35.104 45.337C32.4686 45.4568 31.6769 45.4828 25.0018 45.4828C18.3262 45.4828 17.5351 45.4568 14.8996 45.337C12.4621 45.2245 11.1392 44.8172 10.2574 44.475C9.09072 44.0219 8.25738 43.4802 7.38237 42.6052C6.50736 41.7302 5.96569 40.899 5.51152 39.7318C5.16933 38.8516 4.76151 37.5286 4.65057 35.0911C4.53078 32.4557 4.50682 31.6641 4.50682 24.988C4.50682 18.312 4.53078 17.5245 4.65057 14.8891C4.76203 12.4516 5.16933 11.1286 5.51152 10.2474C5.96465 9.08073 6.50736 8.2474 7.38237 7.3724C8.25738 6.4974 9.09072 5.95573 10.2574 5.50156C11.1387 5.15781 12.4621 4.75156 14.8996 4.63958C17.2059 4.53542 18.0997 4.50417 22.7591 4.49896V4.50521Z" fill="url(#paint3_radial_9_27)"/>
<path d="M38.293 8.59484C37.6996 8.59484 37.1195 8.77081 36.6262 9.1005C36.1328 9.43019 35.7483 9.89879 35.5212 10.447C35.2942 10.9953 35.2348 11.5985 35.3507 12.1805C35.4665 12.7625 35.7524 13.297 36.172 13.7165C36.5917 14.136 37.1263 14.4217 37.7084 14.5373C38.2904 14.653 38.8936 14.5934 39.4418 14.3662C39.9899 14.139 40.4584 13.7543 40.7879 13.2608C41.1175 12.7673 41.2932 12.1872 41.293 11.5938C41.293 9.93755 39.9493 8.5938 38.293 8.5938V8.59484Z" fill="url(#paint4_radial_9_27)"/>
<path fill-rule="evenodd" clip-rule="evenodd" d="M24.9481 12.1C17.8579 12.1 12.1094 17.8485 12.1094 24.9386C12.1094 32.0287 17.8579 37.7745 24.9481 37.7745C32.0382 37.7745 37.7852 32.0287 37.7852 24.9386C37.7852 17.8485 32.0382 12.1 24.9481 12.1ZM25 33.2032C29.5305 33.2032 33.2031 29.5305 33.2031 25C33.2031 20.4696 29.5305 16.7969 25 16.7969C20.4696 16.7969 16.7969 20.4696 16.7969 25C16.7969 29.5305 20.4696 33.2032 25 33.2032Z" fill="url(#paint5_radial_9_27)"/>
<defs>
<radialGradient id="paint0_radial_9_27" cx="0" cy="0" r="1" gradientUnits="userSpaceOnUse" gradientTransform="translate(13.2813 53.851) rotate(-90) scale(49.5537 46.0888)">
<stop stop-color="#FFDD55"/>
<stop offset="0.1" stop-color="#FFDD55"/>
<stop offset="0.5" stop-color="#FF543E"/>
<stop offset="1" stop-color="#C837AB"/>
</radialGradient>
<radialGradient id="paint1_radial_9_27" cx="0" cy="0" r="1" gradientUnits="userSpaceOnUse" gradientTransform="translate(13.2813 53.851) rotate(-90) scale(49.5537 46.0888)">
<stop stop-color="#FFDD55"/>
<stop offset="0.1" stop-color="#FFDD55"/>
<stop offset="0.5" stop-color="#FF543E"/>
<stop offset="1" stop-color="#C837AB"/>
</radialGradient>
<radialGradient id="paint2_radial_9_27" cx="0" cy="0" r="1" gradientUnits="userSpaceOnUse" gradientTransform="translate(13.2813 53.851) rotate(-90) scale(49.5537 46.0888)">
<stop stop-color="#FFDD55"/>
<stop offset="0.1" stop-color="#FFDD55"/>
<stop offset="0.5" stop-color="#FF543E"/>
<stop offset="1" stop-color="#C837AB"/>
</radialGradient>
<radialGradient id="paint3_radial_9_27" cx="0" cy="0" r="1" gradientUnits="userSpaceOnUse" gradientTransform="translate(-8.37526 3.60192) rotate(78.6806) scale(22.1507 91.3062)">
<stop stop-color="#3771C8"/>
<stop offset="0.128" stop-color="#3771C8"/>
<stop offset="1" stop-color="#6600FF" stop-opacity="0"/>
</radialGradient>
<radialGradient id="paint4_radial_9_27" cx="0" cy="0" r="1" gradientUnits="userSpaceOnUse" gradientTransform="translate(-8.37526 3.60192) rotate(78.6806) scale(22.1507 91.3062)">
<stop stop-color="#3771C8"/>
<stop offset="0.128" stop-color="#3771C8"/>
<stop offset="1" stop-color="#6600FF" stop-opacity="0"/>
</radialGradient>
<radialGradient id="paint5_radial_9_27" cx="0" cy="0" r="1" gradientUnits="userSpaceOnUse" gradientTransform="translate(-8.37526 3.60192) rotate(78.6806) scale(22.1507 91.3062)">
<stop stop-color="#3771C8"/>
<stop offset="0.128" stop-color="#3771C8"/>
<stop offset="1" stop-color="#6600FF" stop-opacity="0"/>
</radialGradient>
</defs>
</svg>
