<svg width="28" height="43" viewBox="0 0 28 43" fill="none" xmlns="http://www.w3.org/2000/svg">
<path fill-rule="evenodd" clip-rule="evenodd" d="M7.06329 2.75557C11.433 0.139725 16.8042 0.185446 21.1329 2.87533C25.4191 5.62 28.0241 10.5184 27.9998 15.7878C27.9001 21.0225 25.1067 25.9432 21.6151 29.7472C19.5998 31.9526 17.3453 33.9027 14.8978 35.5578C14.6457 35.7079 14.3696 35.8085 14.0831 35.8544C13.8073 35.8423 13.5387 35.7584 13.3016 35.6101C9.56491 33.1233 6.28671 29.949 3.62468 26.2399C1.39718 23.1437 0.13167 19.4031 2.32722e-06 15.526C-0.00289169 10.2466 2.69355 5.37141 7.06329 2.75557ZM9.58909 17.7111C10.3241 19.578 12.0591 20.7958 13.984 20.7958C15.245 20.8052 16.4572 20.2848 17.3504 19.3506C18.2437 18.4165 18.7438 17.1462 18.7393 15.8228C18.746 13.8028 17.5917 11.9777 15.8153 11.1998C14.0389 10.4218 11.9909 10.8445 10.6274 12.2704C9.26394 13.6963 8.85404 15.8441 9.58909 17.7111Z" fill="#00BABA"/>
<ellipse opacity="0.4" cx="13.9991" cy="39.9751" rx="10.0001" ry="2.06053" fill="#00BABA"/>
</svg>
