<svg width="63" height="63" viewBox="0 0 63 63" fill="none" xmlns="http://www.w3.org/2000/svg">
<path d="M4.65303 57.8631L8.39912 44.1853C6.08866 40.1825 4.8731 35.6412 4.87458 30.9891C4.8805 16.435 16.7246 4.59436 31.2792 4.59436C38.3421 4.59781 44.9714 7.34644 49.9573 12.3358C54.9417 17.3251 57.6863 23.9568 57.6838 31.0104C57.6774 45.5635 45.8314 57.4061 31.2792 57.4061C31.2781 57.4061 31.2803 57.4061 31.2792 57.4061H31.2678C26.8492 57.4043 22.5072 56.2959 18.6503 54.1926L4.65303 57.8631Z" fill="white"/>
<path d="M31.2877 9.05304C19.182 9.05304 9.33727 18.8942 9.33282 30.9905C9.33102 35.1357 10.4911 39.1731 12.6878 42.6664L13.21 43.4963L10.9924 51.5918L19.2987 49.4139L20.1008 49.8892C23.4696 51.8886 27.3319 52.9458 31.2708 52.9478H31.2792C43.3754 52.9478 53.2202 43.1056 53.2251 31.0083C53.2273 25.1461 50.9469 19.6335 46.8032 15.4869C42.6595 11.3402 37.1499 9.05551 31.2877 9.05304Z" fill="url(#paint0_linear_9_22)"/>
<path fill-rule="evenodd" clip-rule="evenodd" d="M24.6802 19.9541C24.1856 18.8557 23.6654 18.8335 23.1956 18.8142C22.8108 18.7978 22.3707 18.7988 21.9311 18.7988C21.4909 18.7988 20.7763 18.964 20.172 19.6242C19.5672 20.2844 17.8625 21.8803 17.8625 25.1264C17.8625 28.3725 20.2269 31.5089 20.5563 31.9495C20.8861 32.3896 25.1203 39.2636 31.8267 41.9079C37.3996 44.1056 38.5335 43.6684 39.7437 43.5587C40.9533 43.4489 43.647 41.9628 44.1964 40.4223C44.7464 38.8819 44.7464 37.5619 44.5817 37.286C44.4165 37.0105 43.9769 36.8459 43.3167 36.516C42.657 36.1862 39.4133 34.5898 38.8085 34.3697C38.2037 34.1497 37.764 34.0399 37.3239 34.7001C36.8843 35.3603 35.6207 36.8459 35.2355 37.286C34.8508 37.7266 34.466 37.7815 33.8058 37.4517C33.1461 37.1208 31.0211 36.425 28.5004 34.1774C26.5391 32.4287 25.2153 30.2691 24.83 29.6089C24.4453 28.9487 24.789 28.5916 25.1198 28.2627C25.416 27.967 25.7795 27.4922 26.1099 27.107C26.4387 26.7218 26.549 26.4468 26.7686 26.0072C26.9887 25.5665 26.8789 25.1813 26.7137 24.8514C26.549 24.5216 25.2667 21.2587 24.6802 19.9541Z" fill="white"/>
<defs>
<linearGradient id="paint0_linear_9_22" x1="30.8322" y1="11.6872" x2="31.0548" y2="49.1978" gradientUnits="userSpaceOnUse">
<stop stop-color="#57D163"/>
<stop offset="1" stop-color="#23B33A"/>
</linearGradient>
</defs>
</svg>
