<svg width="50" height="50" viewBox="0 0 50 50" fill="none" xmlns="http://www.w3.org/2000/svg">
<path d="M42.1875 0H7.8125C3.49778 0 0 3.49778 0 7.8125V42.1875C0 46.5022 3.49778 50 7.8125 50H42.1875C46.5022 50 50 46.5022 50 42.1875V7.8125C50 3.49778 46.5022 0 42.1875 0Z" fill="#FF0000"/>
<path d="M36.875 18.9063C36.5625 17.8125 35.7813 17.0313 34.6875 16.7188C32.8125 16.25 24.8437 16.25 24.8437 16.25C24.8437 16.25 17.0313 16.25 15 16.7188C13.9063 17.0313 13.125 17.8125 12.8125 18.9063C12.5 20.9375 12.5 25 12.5 25C12.5 25 12.5 29.0625 12.9688 31.0938C13.2813 32.1875 14.0625 32.9688 15.1562 33.2813C17.0312 33.75 25 33.75 25 33.75C25 33.75 32.8125 33.75 34.8437 33.2813C35.9375 32.9688 36.7188 32.1875 37.0313 31.0938C37.5 29.0625 37.5 25 37.5 25C37.5 25 37.5 20.9375 36.875 18.9063ZM22.5 28.75V21.25L29.0625 25L22.5 28.75Z" fill="white"/>
</svg>
